# xmcd CD database file
# Copyright (C) 1993-1998 Ti Kan
#
# Track frame offsets:
#  150
#  25194
#  47845
#  73592
#  91005
#  116682
#  129770
#  165585
#  179077
#  201957
#  233675
#  263540
#  283397
#  311052
#
# Disc length: 4417 seconds
#
# Revision: 1
# Processed by: cddbd v1.4b41PL1 Copyright (c) Steve Scherf et al.
# Submitted via: CDWizzard Release:4.35
#
DISCID=c2113f0e
DTITLE=Hot Tuna - Live in Japan
DYEAR=1900
DGENRE=
TTITLE0=Hesitation Blues
TTITLE1=Walkin' Blues
TTITLE2=True Religion
TTITLE3=Been So Long
TTITLE4=Uncle Sam Blues
TTITLE5=Vampire Woman
TTITLE6=Candy Man
TTITLE7=Let Us Get Together
TTITLE8=Third Week In The Chelsea
TTITLE9=99 Year Blues
TTITLE10=Ice Age
TTITLE11=San Francisco Bay Blues
TTITLE12=Mann's Fate
TTITLE13=Keep On Truckin'
EXTD=
EXTT0=
EXTT1=
EXTT2=
EXTT3=
EXTT4=
EXTT5=
EXTT6=
EXTT7=
EXTT8=
EXTT9=
EXTT10=
EXTT11=
EXTT12=
EXTT13=
PLAYORDER=
